<svg height="44" viewBox="0 0 39 44" width="39" xmlns="http://www.w3.org/2000/svg"><path d="m4 17.5c2.5 0 4 1.6 4 4.2 0 2.7-1.5 4.3-4 4.3h-2.9v-8.5zm-1.9 7.6h1.8c1.9 0 3-1.2 3-3.3s-1.1-3.3-3-3.3h-1.8zm12.6-.7c-.3 1.1-1.3 1.7-2.7 1.7-1.8 0-2.8-1.3-2.8-3.3s1.1-3.3 2.8-3.3 2.7 1.2 2.7 3.2v.4h-4.5c.1 1.2.8 2 1.8 2 .8 0 1.4-.3 1.6-.9h1.1zm-4.4-2.1h3.5c0-1.1-.7-1.9-1.7-1.9-1 .1-1.7.8-1.8 1.9zm8.2-2.7c1.3 0 2.2.7 2.4 1.7h-1c-.1-.5-.6-.8-1.4-.8s-1.3.4-1.3.9c0 .4.4.7 1.1.9l1 .2c1.2.3 1.8.8 1.8 1.7 0 1.1-1.1 1.9-2.5 1.9s-2.4-.7-2.5-1.7h1c.2.5.7.9 1.5.9s1.5-.4 1.5-1c0-.4-.3-.7-1-.9l-1.1-.3c-1.2-.3-1.7-.8-1.7-1.7-.2-1 .9-1.8 2.2-1.8zm5.3-1.6v1.6h1.4v.8h-1.4v3.6c0 .7.3 1.1.9 1.1h.5v.9c-.2 0-.4 0-.6 0-1.3 0-1.8-.5-1.8-1.7v-3.8h-1v-.8h1v-1.7zm7.9 6.4c-.3 1.1-1.3 1.7-2.7 1.7-1.8 0-2.8-1.3-2.8-3.3s1.1-3.3 2.8-3.3 2.7 1.2 2.7 3.2v.4h-4.5c.1 1.2.8 2 1.8 2 .8 0 1.4-.3 1.6-.9h1.1zm-4.4-2.1h3.5c0-1.1-.7-1.9-1.7-1.9-1.1.1-1.8.8-1.8 1.9zm9.9-2.6h1.2l-2.7 2.7 2.9 3.6h-1.3l-2.4-3-.6.6v2.4h-1v-8.8h1v5.3h.1z"/></svg>