<svg height="44" viewBox="0 0 65 44" width="65" xmlns="http://www.w3.org/2000/svg"><path d="m5.7 23.6h-3.4l-.9 2.4h-1.1l3.1-8.5h1l3.2 8.5h-1.1zm-3.1-.9h2.7l-1.3-3.8h-.1zm10.1-3h1.3l-2.7 2.7 2.9 3.6h-1.3l-2.4-3-.6.6v2.4h-1v-8.8h1v5.3h.1zm4.5-.1c1.3 0 2.2.7 2.4 1.7h-1c-.1-.5-.6-.8-1.4-.8s-1.3.4-1.3.9c0 .4.4.7 1.1.9l1 .2c1.2.3 1.8.8 1.8 1.7 0 1.1-1.1 1.9-2.5 1.9s-2.4-.7-2.5-1.7h1c.2.5.7.9 1.5.9s1.5-.4 1.5-1c0-.4-.3-.7-1-.9l-1.1-.3c-1.2-.3-1.7-.8-1.7-1.7-.1-1 .9-1.8 2.2-1.8zm9.2 4.8c-.3 1.1-1.3 1.7-2.7 1.7-1.8 0-2.8-1.3-2.8-3.3s1.1-3.3 2.8-3.3 2.7 1.2 2.7 3.2v.4h-4.5c.1 1.2.8 2 1.8 2 .8 0 1.4-.3 1.6-.9h1.1zm-4.5-2.1h3.5c0-1.1-.7-1.9-1.7-1.9-1 .1-1.7.8-1.8 1.9zm8.2-2.7c1.3 0 2.2.7 2.4 1.7h-1c-.1-.5-.6-.8-1.4-.8s-1.3.4-1.3.9c0 .4.4.7 1.1.9l1 .2c1.2.3 1.8.8 1.8 1.7 0 1.1-1.1 1.9-2.5 1.9s-2.4-.7-2.5-1.7h1c.2.5.7.9 1.5.9s1.5-.4 1.5-1c0-.4-.3-.7-1-.9l-1.1-.3c-1.2-.3-1.7-.8-1.7-1.7-.1-1 .9-1.8 2.2-1.8zm9.1 6.4h-1v-1h-.1c-.3.7-1 1.1-2 1.1-1.4 0-2.2-.8-2.2-2.3v-4.1h1v3.8c0 1.1.4 1.7 1.4 1.7 1.1 0 1.7-.7 1.7-1.8v-3.7h1v6.3zm1.4-1.8c0-1.1.8-1.8 2.3-1.9l1.8-.1v-.6c0-.8-.5-1.2-1.4-1.2-.8 0-1.3.3-1.4.8h-1c.1-1 1.1-1.7 2.5-1.7 1.5 0 2.4.8 2.4 2.1v4.4h-1v-.9h-.1c-.4.7-1.1 1-1.9 1-1.3 0-2.2-.7-2.2-1.9zm4.1-.6v-.6l-1.7.2c-1 .1-1.4.4-1.4 1s.5 1 1.3 1c1 0 1.8-.7 1.8-1.6zm2.7-3.9h1v.9h.1c.2-.6.9-1 1.8-1h.5v1c-.1 0-.4-.1-.6-.1-1 0-1.7.6-1.7 1.5v4h-1v-6.3zm4.6-2.5h1v8.8h-1zm2.4 7c0-1.1.8-1.8 2.3-1.9l1.8-.1v-.6c0-.8-.5-1.2-1.4-1.2-.8 0-1.3.3-1.4.8h-1c.1-1 1.1-1.7 2.5-1.7 1.5 0 2.4.8 2.4 2.1v4.4h-1v-.9h-.1c-.4.7-1.1 1-1.9 1-1.3 0-2.2-.7-2.2-1.9zm4.2-.6v-.6l-1.7.1c-1 .1-1.4.4-1.4 1s.5 1 1.3 1c1 .1 1.8-.6 1.8-1.5zm2.7-3.9h1v.9h.1c.2-.6.9-1 1.8-1h.5v1c-.1 0-.4-.1-.6-.1-1 0-1.7.6-1.7 1.5v4h-1v-6.3z"/></svg>