<svg id="a" xmlns="http://www.w3.org/2000/svg" width="45" height="44" viewBox="0 0 45 44"><path id="d" d="M1.0781,17.5449H6.3164v.9492H2.1328v2.7129h3.9668v.9375H2.1328v2.9062H6.3164v.9492H1.0781v-8.4551Zm6.8467,8.959l.0117-.0059h1.0547l.0059,.0059c.1113,.4805,.6738,.8203,1.582,.8203,1.1309,0,1.8047-.5332,1.8047-1.4648v-1.2773h-.0938c-.3984,.6973-1.1133,1.0898-1.9805,1.0898-1.6348,0-2.6484-1.2656-2.6484-3.0352v-.0117c0-1.7695,1.0195-3.0527,2.6719-3.0527,.8906,0,1.582,.4395,1.9688,1.1543h.0703v-1.043h1.0195v6.2285c0,1.4121-1.0898,2.3145-2.8125,2.3145-1.5234,0-2.4961-.6855-2.6543-1.7227Zm.6562-9.6797v-.0117h.8555v.0059c0,.7148,.375,1.1895,1.1895,1.1895s1.1895-.4746,1.1895-1.1895v-.0059h.8555v.0117c0,1.1602-.7148,1.9805-2.0449,1.9805s-2.0449-.8203-2.0449-1.9805Zm3.8262,5.8125v-.0117c0-1.2539-.709-2.1504-1.875-2.1504-1.1719,0-1.8281,.8965-1.8281,2.1504v.0117c0,1.2539,.6562,2.1328,1.8281,2.1328s1.875-.8789,1.875-2.1328Zm2.8213-5.4609h1.0195v8.8242h-1.0195v-8.8242Zm2.541,5.6895v-.0059c0-1.9512,1.1133-3.2871,2.8301-3.2871s2.7598,1.2773,2.7598,3.1641v.3984h-4.5469c.0293,1.3066,.75,2.0684,1.875,2.0684,.8555,0,1.3828-.4043,1.5527-.7852l.0234-.0527h1.0195l-.0117,.0469c-.2168,.8555-1.1191,1.6992-2.6074,1.6992-1.8047,0-2.8945-1.2656-2.8945-3.2461Zm1.0605-.5449h3.4922c-.1055-1.248-.7969-1.8398-1.7285-1.8398-.9375,0-1.6523,.6387-1.7637,1.8398Zm5.9912-2.6367h1.0195v.9492h.0938c.3164-.668,.9082-1.0605,1.8398-1.0605,1.418,0,2.209,.8379,2.209,2.3379v4.0898h-1.0195v-3.8438c0-1.1367-.4688-1.6816-1.4766-1.6816s-1.6465,.6797-1.6465,1.7871v3.7383h-1.0195v-6.3164Zm6.5654,3.1406v-.0117c0-1.9629,1.125-3.2402,2.8945-3.2402,1.5352,0,2.4551,.8848,2.6426,2.0098l.0059,.0352h-1.0137l-.0059-.0176c-.1582-.6211-.7207-1.125-1.6289-1.125-1.1367,0-1.8516,.9141-1.8516,2.3379v.0117c0,1.4531,.7266,2.3848,1.8516,2.3848,.8496,0,1.3887-.375,1.623-1.0781l.0117-.0352,1.0078-.0059-.0117,.0645c-.2578,1.1426-1.1074,1.957-2.625,1.957-1.7695,0-2.9004-1.2832-2.9004-3.2871Zm6.5947,.041v-.0059c0-1.9512,1.1133-3.2871,2.8301-3.2871s2.7598,1.2773,2.7598,3.1641v.3984h-4.5469c.0293,1.3066,.75,2.0684,1.875,2.0684,.8555,0,1.3828-.4043,1.5527-.7852l.0234-.0527h1.0195l-.0117,.0469c-.2168,.8555-1.1191,1.6992-2.6074,1.6992-1.8047,0-2.8945-1.2656-2.8945-3.2461Zm1.0605-.5449h3.4922c-.1055-1.248-.7969-1.8398-1.7285-1.8398-.9375,0-1.6523,.6387-1.7637,1.8398Z"/></svg>