<svg height="44" viewBox="0 0 48 44" width="48" xmlns="http://www.w3.org/2000/svg"><path d="m3 26v-7.5h-2.7v-.9h6.5v.9h-2.8v7.5zm8 0-3.1-8.5h1.1l2.5 7.1h.1l2.5-7.1h1.1l-3.2 8.5zm11 0h-1l-2.3-6.3h1.1l1.7 5.2h.1l1.7-5.2h1.1zm8.5-1.6c-.3 1.1-1.3 1.7-2.7 1.7-1.8 0-2.8-1.3-2.8-3.3s1.1-3.3 2.8-3.3 2.7 1.2 2.7 3.2v.4h-4.5c.1 1.2.8 2 1.8 2 .8 0 1.4-.3 1.6-.9h1.1zm-4.5-2.1h3.5c0-1.1-.7-1.9-1.7-1.9-1 .1-1.7.8-1.8 1.9zm14.2 3.7h-5.2v-8.5h5.2v.9h-4.2v2.7h4v.9h-4v2.9h4.2zm4.5 0h-1l-2.3-6.3h1.1l1.7 5.2h.1l1.7-5.2h1.1z"/></svg>